<svg version="1.1" id="Layer_1" xmlns="http://www.w3.org/2000/svg" xmlns:xlink="http://www.w3.org/1999/xlink" x="0px" y="0px"
	 width="100%" viewBox="0 0 256 222" enable-background="new 0 0 256 222" xml:space="preserve">
<path fill="#FCFDFE" opacity="1.000000" stroke="none" 
	d="
M1.000000,81.000000 
	C1.000000,54.000004 1.000000,27.500010 1.000000,1.000011 
	C86.333313,1.000007 171.666626,1.000007 256.999939,1.000004 
	C256.999969,74.999962 256.999969,148.999924 257.000000,222.999908 
	C171.666718,222.999939 86.333427,222.999939 1.000073,222.999969 
	C1.000000,175.833328 1.000000,128.666672 1.000000,81.000000 
M92.853119,73.508003 
	C93.516861,102.627357 94.193298,131.746445 94.833458,160.866318 
	C94.958992,166.576431 97.848984,168.455475 102.604164,165.685028 
	C129.765686,149.860214 156.913849,134.012466 184.051743,118.147171 
	C188.471344,115.563393 188.486588,109.482727 184.103226,106.880196 
	C165.082993,95.587349 146.048508,84.318535 127.018631,73.041939 
	C117.174522,67.208580 107.329216,61.377232 98.101151,55.910332 
	C92.788177,57.440140 92.001099,60.702698 92.758835,65.026413 
	C93.183853,67.451614 92.841904,70.011230 92.853119,73.508003 
M103.207947,51.264706 
	C131.806427,68.212151 160.388672,85.187180 189.045532,102.035339 
	C190.684647,102.999023 192.932953,102.926506 194.897751,103.336243 
	C195.043533,101.650681 195.457886,99.938484 195.293732,98.283669 
	C193.570892,80.914040 191.774521,63.551613 189.958603,46.191368 
	C188.873932,35.821774 187.718567,25.459579 186.505157,14.265461 
	C157.003586,25.138140 128.001968,35.826557 97.821800,46.949329 
	C100.002151,48.776371 101.280602,49.847652 103.207947,51.264706 
M127.984230,158.471481 
	C120.661339,162.734558 113.299202,166.932755 106.049843,171.317444 
	C104.660774,172.157623 103.715523,173.731583 102.565514,174.967010 
	C103.859947,176.011566 104.998375,177.432938 106.472572,178.043289 
	C124.258110,185.406815 142.089905,192.658783 159.916946,199.921844 
	C168.627167,203.470551 177.352646,206.981735 186.614090,210.729584 
	C189.707642,181.215073 192.727890,152.399826 195.918793,121.956528 
	C192.193634,122.851463 189.123535,122.917221 186.782898,124.257187 
	C167.315750,135.401733 147.983185,146.781326 127.984230,158.471481 
M63.865719,149.635361 
	C70.418510,154.761307 76.948074,159.917557 83.550041,164.979370 
	C84.501289,165.708710 85.800880,165.983734 86.939270,166.468994 
	C87.347748,165.170334 88.122131,163.867737 88.108192,162.573624 
	C87.966682,149.432312 87.729340,136.291672 87.454933,123.152191 
	C87.031235,102.864494 86.613434,82.576157 85.998428,62.293995 
	C85.949425,60.677895 84.686485,58.747654 83.394485,57.683918 
	C82.836952,57.224884 80.505196,58.288445 79.425201,59.192734 
	C66.540421,69.981293 53.735401,80.865173 40.918438,91.734634 
	C32.855949,98.572067 24.808533,105.427284 16.488600,112.500450 
	C32.415237,124.978508 47.862370,137.080887 63.865719,149.635361 
M226.140457,75.362274 
	C215.723679,57.327503 205.306900,39.292732 194.890121,21.257961 
	C194.153885,22.774628 194.053925,23.918699 194.169159,25.040670 
	C195.476013,37.765110 196.811737,50.486591 198.147888,63.208008 
	C199.466873,75.765945 200.815186,88.320839 202.107544,100.881508 
	C202.508255,104.776161 203.870850,108.784164 207.982285,108.944649 
	C220.191238,109.421204 232.430725,109.115379 245.607468,109.115379 
	C238.909195,97.490593 232.714340,86.739464 226.140457,75.362274 
M217.098465,164.595917 
	C226.377014,148.529785 235.655563,132.463654 245.254501,115.842781 
	C233.725647,115.842781 223.072723,115.841881 212.419785,115.843132 
	C206.541061,115.843819 202.635300,119.583900 202.014420,125.586937 
	C200.113983,143.961792 198.135803,162.328583 196.223053,180.702164 
	C195.449448,188.133408 194.767029,195.574142 194.043106,203.010559 
	C194.302170,203.063187 194.561234,203.115799 194.820282,203.168427 
	C202.142731,190.532257 209.465179,177.896103 217.098465,164.595917 
M56.632942,191.871033 
	C60.503036,198.555359 64.373131,205.239685 68.532722,212.424026 
	C73.482094,203.175278 78.102249,194.547653 82.716354,185.916809 
	C84.772781,182.070160 82.847473,172.787506 79.380257,170.072372 
	C63.404152,157.561722 47.411903,145.071671 31.427961,132.571014 
	C26.791348,128.944824 22.163046,125.308014 17.530933,121.676071 
	C17.221485,121.947052 16.912035,122.218025 16.602585,122.488998 
	C29.805586,145.415771 43.008587,168.342529 56.632942,191.871033 
M143.499969,214.842163 
	C154.579132,214.842163 165.658295,214.842163 177.313034,214.842163 
	C176.507202,214.094208 176.231903,213.662766 175.844910,213.504562 
	C151.094711,203.385895 126.419739,193.070023 101.467026,183.476776 
	C98.448204,182.316193 92.036842,183.816422 90.436958,186.230286 
	C84.539940,195.127563 80.005180,204.927734 74.715981,214.842148 
	C97.871529,214.842148 120.185738,214.842148 143.499969,214.842163 
M127.548798,29.015362 
	C144.415207,22.798183 161.281616,16.581007 178.148026,10.363829 
	C178.051849,10.198530 177.955688,10.033232 177.859512,9.867933 
	C143.591980,9.867933 109.324432,9.867933 74.350311,9.867933 
	C79.153877,19.498100 83.183502,28.663321 88.339844,37.143436 
	C89.615082,39.240673 94.978615,40.562870 97.722984,39.748405 
	C107.586510,36.821148 117.133377,32.826874 127.548798,29.015362 
M18.718136,98.159775 
	C17.861904,99.625931 17.005672,101.092087 16.149441,102.558243 
	C17.880972,102.382645 18.932180,101.704079 19.880177,100.903313 
	C37.806522,85.761078 55.473774,70.295372 73.799713,55.653946 
	C78.784950,51.671009 78.831818,45.907570 82.111855,41.539455 
	C82.425270,41.122070 81.954842,39.938496 81.606842,39.229053 
	C77.321533,30.492914 72.991234,21.778847 68.283890,12.274337 
	C51.582787,41.170410 35.301567,69.340019 18.718136,98.159775 
z"/>
<path fill="#0459A6" opacity="1.000000" stroke="none" 
	d="
M92.849319,73.009140 
	C92.841904,70.011230 93.183853,67.451614 92.758835,65.026413 
	C92.001099,60.702698 92.788177,57.440140 98.101151,55.910332 
	C107.329216,61.377232 117.174522,67.208580 127.018631,73.041939 
	C146.048508,84.318535 165.082993,95.587349 184.103226,106.880196 
	C188.486588,109.482727 188.471344,115.563393 184.051743,118.147171 
	C156.913849,134.012466 129.765686,149.860214 102.604164,165.685028 
	C97.848984,168.455475 94.958992,166.576431 94.833458,160.866318 
	C94.193298,131.746445 93.516861,102.627357 92.849319,73.009140 
z"/>
<path fill="#2C7DD2" opacity="1.000000" stroke="none" 
	d="
M102.883499,51.091820 
	C101.280602,49.847652 100.002151,48.776371 97.821800,46.949329 
	C128.001968,35.826557 157.003586,25.138140 186.505157,14.265461 
	C187.718567,25.459579 188.873932,35.821774 189.958603,46.191368 
	C191.774521,63.551613 193.570892,80.914040 195.293732,98.283669 
	C195.457886,99.938484 195.043533,101.650681 194.897751,103.336243 
	C192.932953,102.926506 190.684647,102.999023 189.045532,102.035339 
	C160.388672,85.187180 131.806427,68.212151 102.883499,51.091820 
z"/>
<path fill="#124091" opacity="1.000000" stroke="none" 
	d="
M128.297089,158.280701 
	C147.983185,146.781326 167.315750,135.401733 186.782898,124.257187 
	C189.123535,122.917221 192.193634,122.851463 195.918793,121.956528 
	C192.727890,152.399826 189.707642,181.215073 186.614090,210.729584 
	C177.352646,206.981735 168.627167,203.470551 159.916946,199.921844 
	C142.089905,192.658783 124.258110,185.406815 106.472572,178.043289 
	C104.998375,177.432938 103.859947,176.011566 102.565506,174.967010 
	C103.715523,173.731583 104.660774,172.157623 106.049843,171.317444 
	C113.299202,166.932755 120.661339,162.734558 128.297089,158.280701 
z"/>
<path fill="#114091" opacity="1.000000" stroke="none" 
	d="
M63.587608,149.409302 
	C47.862370,137.080887 32.415237,124.978508 16.488600,112.500450 
	C24.808533,105.427284 32.855949,98.572067 40.918438,91.734634 
	C53.735401,80.865173 66.540421,69.981293 79.425201,59.192734 
	C80.505196,58.288445 82.836952,57.224884 83.394485,57.683918 
	C84.686485,58.747654 85.949425,60.677895 85.998428,62.293995 
	C86.613434,82.576157 87.031235,102.864494 87.454933,123.152191 
	C87.729340,136.291672 87.966682,149.432312 88.108192,162.573624 
	C88.122131,163.867737 87.347748,165.170334 86.939270,166.468994 
	C85.800880,165.983734 84.501289,165.708710 83.550041,164.979370 
	C76.948074,159.917557 70.418510,154.761307 63.587608,149.409302 
z"/>
<path fill="#43A5ED" opacity="1.000000" stroke="none" 
	d="
M226.329956,75.675308 
	C232.714340,86.739464 238.909195,97.490593 245.607468,109.115379 
	C232.430725,109.115379 220.191238,109.421204 207.982285,108.944649 
	C203.870850,108.784164 202.508255,104.776161 202.107544,100.881508 
	C200.815186,88.320839 199.466873,75.765945 198.147888,63.208008 
	C196.811737,50.486591 195.476013,37.765110 194.169159,25.040670 
	C194.053925,23.918699 194.153885,22.774628 194.890121,21.257961 
	C205.306900,39.292732 215.723679,57.327503 226.329956,75.675308 
z"/>
<path fill="#056EC1" opacity="1.000000" stroke="none" 
	d="
M216.943039,164.927933 
	C209.465179,177.896103 202.142731,190.532257 194.820282,203.168427 
	C194.561234,203.115799 194.302170,203.063187 194.043106,203.010559 
	C194.767029,195.574142 195.449448,188.133408 196.223053,180.702164 
	C198.135803,162.328583 200.113983,143.961792 202.014420,125.586937 
	C202.635300,119.583900 206.541061,115.843819 212.419785,115.843132 
	C223.072723,115.841881 233.725647,115.842781 245.254501,115.842781 
	C235.655563,132.463654 226.377014,148.529785 216.943039,164.927933 
z"/>
<path fill="#193A72" opacity="1.000000" stroke="none" 
	d="
M56.422264,191.570160 
	C43.008587,168.342529 29.805586,145.415771 16.602585,122.488998 
	C16.912035,122.218025 17.221485,121.947052 17.530933,121.676071 
	C22.163046,125.308014 26.791348,128.944824 31.427961,132.571014 
	C47.411903,145.071671 63.404152,157.561722 79.380257,170.072372 
	C82.847473,172.787506 84.772781,182.070160 82.716354,185.916809 
	C78.102249,194.547653 73.482094,203.175278 68.532722,212.424026 
	C64.373131,205.239685 60.503036,198.555359 56.422264,191.570160 
z"/>
<path fill="#17325A" opacity="1.000000" stroke="none" 
	d="
M142.999954,214.842163 
	C120.185738,214.842148 97.871529,214.842148 74.715981,214.842148 
	C80.005180,204.927734 84.539940,195.127563 90.436958,186.230286 
	C92.036842,183.816422 98.448204,182.316193 101.467026,183.476776 
	C126.419739,193.070023 151.094711,203.385895 175.844910,213.504562 
	C176.231903,213.662766 176.507202,214.094208 177.313034,214.842163 
	C165.658295,214.842163 154.579132,214.842163 142.999954,214.842163 
z"/>
<path fill="#48A7EE" opacity="1.000000" stroke="none" 
	d="
M127.174355,29.125605 
	C117.133377,32.826874 107.586510,36.821148 97.722984,39.748405 
	C94.978615,40.562870 89.615082,39.240673 88.339844,37.143436 
	C83.183502,28.663321 79.153877,19.498100 74.350311,9.867933 
	C109.324432,9.867933 143.591980,9.867933 177.859512,9.867933 
	C177.955688,10.033232 178.051849,10.198530 178.148026,10.363829 
	C161.281616,16.581007 144.415207,22.798183 127.174355,29.125605 
z"/>
<path fill="#037AD4" opacity="1.000000" stroke="none" 
	d="
M18.869240,97.834702 
	C35.301567,69.340019 51.582787,41.170410 68.283890,12.274337 
	C72.991234,21.778847 77.321533,30.492914 81.606842,39.229053 
	C81.954842,39.938496 82.425270,41.122070 82.111855,41.539455 
	C78.831818,45.907570 78.784950,51.671009 73.799713,55.653946 
	C55.473774,70.295372 37.806522,85.761078 19.880177,100.903313 
	C18.932180,101.704079 17.880972,102.382645 16.149441,102.558243 
	C17.005672,101.092087 17.861904,99.625931 18.869240,97.834702 
z"/>
</svg>